# xmcd CD database file
#
# Track frame offsets:
#	150
#	32230
#	55292
#	72536
#	103537
#	122927
#	144810
#	172341
#	207017
#	216726
#	239646
#	254775
#
# Disc length: 3973 seconds
#
# Revision: 0
# Processed by: cddbd v1.5.1PL0 Copyright (c) Steve Scherf et al.
# Submitted via: CDex 1.51
#
DISCID=ca0f830c
DTITLE=Rowan Lab Band - Collaboration
DYEAR=2004
DGENRE=Jazz
TTITLE0=Cherokee
TTITLE1=Quiet Nights of Quiet Stars (Corcovado)
TTITLE2=Capriole
TTITLE3=Jackson Square
TTITLE4=I Doug Where the Mapp Said "X"
TTITLE5=Joe Beam
TTITLE6=Dizzy
TTITLE7=Little Sunflower
TTITLE8=Linus and Lucy
TTITLE9=Walkin in the Rain
TTITLE10=Dig
TTITLE11=All Blues
EXTD=YEAR: 2004
EXTT0=
EXTT1=
EXTT2=
EXTT3=
EXTT4=
EXTT5=
EXTT6=
EXTT7=
EXTT8=
EXTT9=
EXTT10=
EXTT11=
PLAYORDER=
